# xmcd
#
# Track frame offsets: 
#        150
#        13687
#        27614
#        41606
#        55530
#        71428
#        87550
#        102392
#        118589
#        135444
#        148663
#        162361
#        177692
#        192238
#        208656
#        224338
#        238437
#        253871
#        269824
#        285126
#        299083
#        311051
#
# Disc length: 4344 seconds
#
# Revision: 0
# Processed by: cddbd v1.5.2PL0 Copyright (c) Steve Scherf et al.
# Submitted via: ExactAudioCopy v0.99pb4
#
DISCID=6510f616
DTITLE=Various Artist - Schlagerfestival 2016 - CD 1
DYEAR=2016
DGENRE=Chanson
TTITLE0=De Romeo's - Viva Viva Las Vegas
TTITLE1=KLUBBB3 - Du Schaffst Das Schon
TTITLE2=Lindsay - Tijd Voor Gezelligheid
TTITLE3=Luc Steeno - Mijn Armen Om Je Schouders
TTITLE4=Dana Winner - Lief Zo Lief
TTITLE5=Willy Sommers - Een Mooie Toekomst
TTITLE6=Beatrice Egli - Wir Leben Laut
TTITLE7=Jo Vally - De Wijde Wereld In
TTITLE8=Steve Tielens - De Polonaise
TTITLE9=John Terra - Ik Moet Wel Geloven
TTITLE10=Yvan Verelli - Mona
TTITLE11=Christoff - Vergeven Kan, Vergeten Niet
TTITLE12=Yves Segers - Waar Zijn Die Handjes
TTITLE13=Bart Kaëll - Zeg Hallo
TTITLE14=Lissa Lewis - Nu De Hemel Open Gaat
TTITLE15=Jettie Pallettie - Feest In De Tent
TTITLE16=Laura Lynn - Vuurwerk
TTITLE17=The Championettes - De Kampioenenjubilee
TTITLE18=André Hazes Jr. - Niet Voor Lief
TTITLE19=Lindsay and Jan Smit - Duizend En Eén Nacht
TTITLE20=VoXXclub - Rock Mi
TTITLE21=Will Tura - Valentijn
EXTD=
EXTT0=
EXTT1=
EXTT2=
EXTT3=
EXTT4=
EXTT5=
EXTT6=
EXTT7=
EXTT8=
EXTT9=
EXTT10=
EXTT11=
EXTT12=
EXTT13=
EXTT14=
EXTT15=
EXTT16=
EXTT17=
EXTT18=
EXTT19=
EXTT20=
EXTT21=
PLAYORDER=
